<svg width="157" height="49" viewBox="0 0 157 49" fill="none" xmlns="http://www.w3.org/2000/svg">
<g clip-path="url(#clip0_2_609)">
<path fill-rule="evenodd" clip-rule="evenodd" d="M33.418 15.1238C34.8785 13.6632 34.8785 11.2952 33.418 9.83461L26.6863 3.10295C25.2258 1.64239 22.8577 1.64239 21.3972 3.10295L14.579 9.92109C13.1185 11.3817 13.1185 13.7496 14.5791 15.2102L21.3107 21.9419C22.7713 23.4024 22.7713 25.7705 21.3107 27.231L14.6655 33.8762C13.205 35.3368 13.205 37.7049 14.6655 39.1654L21.3972 45.8971C22.8577 47.3576 25.2258 47.3576 26.6863 45.8971L33.5045 39.0788C34.9651 37.6183 34.965 35.2503 33.5045 33.7898L26.7728 27.0581C25.3123 25.5976 25.3123 23.2295 26.7728 21.7689L33.418 15.1238Z" fill="black"/>
</g>
<path d="M55.5858 30.52C55.5858 31.48 55.7591 32.2933 56.1058 32.96C56.4524 33.6267 56.9058 34.1733 57.4658 34.6C58.0524 35 58.7324 35.3067 59.5058 35.52C60.2791 35.7067 61.0791 35.8 61.9058 35.8C62.4658 35.8 63.0658 35.76 63.7058 35.68C64.3458 35.5733 64.9458 35.3867 65.5058 35.12C66.0658 34.8533 66.5324 34.4933 66.9058 34.04C67.2791 33.56 67.4658 32.96 67.4658 32.24C67.4658 31.4667 67.2124 30.84 66.7058 30.36C66.2258 29.88 65.5858 29.48 64.7858 29.16C63.9858 28.84 63.0791 28.56 62.0658 28.32C61.0524 28.08 60.0258 27.8133 58.9858 27.52C57.9191 27.2533 56.8791 26.9333 55.8658 26.56C54.8524 26.16 53.9458 25.6533 53.1458 25.04C52.3458 24.4267 51.6924 23.6667 51.1858 22.76C50.7058 21.8267 50.4658 20.7067 50.4658 19.4C50.4658 17.9333 50.7724 16.6667 51.3858 15.6C52.0258 14.5067 52.8524 13.6 53.8658 12.88C54.8791 12.16 56.0258 11.6267 57.3058 11.28C58.5858 10.9333 59.8658 10.76 61.1458 10.76C62.6391 10.76 64.0658 10.9333 65.4258 11.28C66.8124 11.6 68.0391 12.1333 69.1058 12.88C70.1724 13.6267 71.0124 14.5867 71.6258 15.76C72.2658 16.9067 72.5858 18.3067 72.5858 19.96H66.5058C66.4524 19.1067 66.2658 18.4 65.9458 17.84C65.6524 17.28 65.2524 16.84 64.7458 16.52C64.2391 16.2 63.6524 15.9733 62.9858 15.84C62.3458 15.7067 61.6391 15.64 60.8658 15.64C60.3591 15.64 59.8524 15.6933 59.3458 15.8C58.8391 15.9067 58.3724 16.0933 57.9458 16.36C57.5458 16.6267 57.2124 16.96 56.9458 17.36C56.6791 17.76 56.5458 18.2667 56.5458 18.88C56.5458 19.44 56.6524 19.8933 56.8658 20.24C57.0791 20.5867 57.4924 20.9067 58.1058 21.2C58.7458 21.4933 59.6124 21.7867 60.7058 22.08C61.8258 22.3733 63.2791 22.7467 65.0658 23.2C65.5991 23.3067 66.3324 23.5067 67.2658 23.8C68.2258 24.0667 69.1724 24.5067 70.1058 25.12C71.0391 25.7333 71.8391 26.56 72.5058 27.6C73.1991 28.6133 73.5458 29.92 73.5458 31.52C73.5458 32.8267 73.2924 34.04 72.7858 35.16C72.2791 36.28 71.5191 37.2533 70.5058 38.08C69.5191 38.88 68.2791 39.5067 66.7858 39.96C65.3191 40.4133 63.6124 40.64 61.6658 40.64C60.0924 40.64 58.5591 40.44 57.0658 40.04C55.5991 39.6667 54.2924 39.0667 53.1458 38.24C52.0258 37.4133 51.1324 36.36 50.4658 35.08C49.7991 33.8 49.4791 32.28 49.5058 30.52H55.5858ZM82.9223 16.12H77.2423V11.44H82.9223V16.12ZM77.2423 19.32H82.9223V40H77.2423V19.32ZM87.7948 19.32H93.1948V22.2H93.3148C94.0348 21 94.9681 20.1333 96.1148 19.6C97.2615 19.04 98.4348 18.76 99.6348 18.76C101.155 18.76 102.395 18.9733 103.355 19.4C104.341 19.8 105.115 20.3733 105.675 21.12C106.235 21.84 106.621 22.7333 106.835 23.8C107.075 24.84 107.195 26 107.195 27.28V40H101.515V28.32C101.515 26.6133 101.248 25.3467 100.715 24.52C100.181 23.6667 99.2348 23.24 97.8748 23.24C96.3281 23.24 95.2081 23.7067 94.5148 24.64C93.8215 25.5467 93.4748 27.0533 93.4748 29.16V40H87.7948V19.32ZM125.986 26.6C125.612 24.2267 124.212 23.04 121.786 23.04C120.879 23.04 120.119 23.2533 119.506 23.68C118.892 24.08 118.386 24.6133 117.986 25.28C117.612 25.92 117.346 26.64 117.186 27.44C117.026 28.2133 116.946 28.9867 116.946 29.76C116.946 30.5067 117.026 31.2667 117.186 32.04C117.346 32.8133 117.599 33.52 117.946 34.16C118.319 34.7733 118.812 35.28 119.426 35.68C120.039 36.08 120.786 36.28 121.666 36.28C123.026 36.28 124.066 35.9067 124.786 35.16C125.532 34.3867 125.999 33.36 126.186 32.08H131.666C131.292 34.8267 130.226 36.92 128.466 38.36C126.706 39.8 124.452 40.52 121.706 40.52C120.159 40.52 118.732 40.2667 117.426 39.76C116.146 39.2267 115.052 38.4933 114.146 37.56C113.239 36.6267 112.532 35.52 112.026 34.24C111.519 32.9333 111.266 31.5067 111.266 29.96C111.266 28.36 111.492 26.88 111.946 25.52C112.426 24.1333 113.119 22.9467 114.026 21.96C114.932 20.9467 116.039 20.16 117.346 19.6C118.652 19.04 120.146 18.76 121.826 18.76C123.052 18.76 124.226 18.92 125.346 19.24C126.492 19.56 127.506 20.0533 128.386 20.72C129.292 21.36 130.026 22.1733 130.586 23.16C131.146 24.12 131.466 25.2667 131.546 26.6H125.986ZM135.035 25.68C135.115 24.3467 135.448 23.24 136.035 22.36C136.621 21.48 137.368 20.7733 138.275 20.24C139.181 19.7067 140.195 19.3333 141.315 19.12C142.461 18.88 143.608 18.76 144.755 18.76C145.795 18.76 146.848 18.84 147.915 19C148.981 19.1333 149.955 19.4133 150.835 19.84C151.715 20.2667 152.435 20.8667 152.995 21.64C153.555 22.3867 153.835 23.3867 153.835 24.64V35.4C153.835 36.3333 153.888 37.2267 153.995 38.08C154.101 38.9333 154.288 39.5733 154.555 40H148.795C148.688 39.68 148.595 39.36 148.515 39.04C148.461 38.6933 148.421 38.3467 148.395 38C147.488 38.9333 146.421 39.5867 145.195 39.96C143.968 40.3333 142.715 40.52 141.435 40.52C140.448 40.52 139.528 40.4 138.675 40.16C137.821 39.92 137.075 39.5467 136.435 39.04C135.795 38.5333 135.288 37.8933 134.915 37.12C134.568 36.3467 134.395 35.4267 134.395 34.36C134.395 33.1867 134.595 32.2267 134.995 31.48C135.421 30.7067 135.955 30.0933 136.595 29.64C137.261 29.1867 138.008 28.8533 138.835 28.64C139.688 28.4 140.541 28.2133 141.395 28.08C142.248 27.9467 143.088 27.84 143.915 27.76C144.741 27.68 145.475 27.56 146.115 27.4C146.755 27.24 147.261 27.0133 147.635 26.72C148.008 26.4 148.181 25.9467 148.155 25.36C148.155 24.7467 148.048 24.2667 147.835 23.92C147.648 23.5467 147.381 23.2667 147.035 23.08C146.715 22.8667 146.328 22.7333 145.875 22.68C145.448 22.6 144.981 22.56 144.475 22.56C143.355 22.56 142.475 22.8 141.835 23.28C141.195 23.76 140.821 24.56 140.715 25.68H135.035ZM148.155 29.88C147.915 30.0933 147.608 30.2667 147.235 30.4C146.888 30.5067 146.501 30.6 146.075 30.68C145.675 30.76 145.248 30.8267 144.795 30.88C144.341 30.9333 143.888 31 143.435 31.08C143.008 31.16 142.581 31.2667 142.155 31.4C141.755 31.5333 141.395 31.72 141.075 31.96C140.781 32.1733 140.541 32.4533 140.355 32.8C140.168 33.1467 140.075 33.5867 140.075 34.12C140.075 34.6267 140.168 35.0533 140.355 35.4C140.541 35.7467 140.795 36.0267 141.115 36.24C141.435 36.4267 141.808 36.56 142.235 36.64C142.661 36.72 143.101 36.76 143.555 36.76C144.675 36.76 145.541 36.5733 146.155 36.2C146.768 35.8267 147.221 35.3867 147.515 34.88C147.808 34.3467 147.981 33.8133 148.035 33.28C148.115 32.7467 148.155 32.32 148.155 32V29.88Z" fill="black"/>
<defs>
<clipPath id="clip0_2_609">
<rect width="34" height="34" fill="white" transform="translate(24.0417 0.458374) rotate(45)"/>
</clipPath>
</defs>
</svg>
