<svg width="41" height="40" viewBox="0 0 41 40" fill="none" xmlns="http://www.w3.org/2000/svg">
<rect x="0.5" width="40" height="40" rx="1" fill="white"/>
<path fill-rule="evenodd" clip-rule="evenodd" d="M29.14 20.2047C29.14 19.5665 29.0827 18.9529 28.9764 18.3638H20.5V21.8451H25.3436C25.135 22.9701 24.5009 23.9233 23.5477 24.5615V26.8197H26.4564C28.1582 25.2529 29.14 22.9456 29.14 20.2047Z" fill="#4285F4"/>
<path fill-rule="evenodd" clip-rule="evenodd" d="M20.5 29C22.93 29 24.9673 28.1941 26.4564 26.8195L23.5477 24.5613C22.7418 25.1013 21.7109 25.4204 20.5 25.4204C18.1559 25.4204 16.1718 23.8372 15.4641 21.71H12.4573V24.0418C13.9382 26.9831 16.9818 29 20.5 29Z" fill="#34A853"/>
<path fill-rule="evenodd" clip-rule="evenodd" d="M15.4641 21.7101C15.2841 21.1701 15.1818 20.5933 15.1818 20.0001C15.1818 19.4069 15.2841 18.8301 15.4641 18.2901V15.9583H12.4573C11.8477 17.1733 11.5 18.5478 11.5 20.0001C11.5 21.4523 11.8477 22.8269 12.4573 24.0419L15.4641 21.7101Z" fill="#FBBC05"/>
<path fill-rule="evenodd" clip-rule="evenodd" d="M20.5 14.5795C21.8214 14.5795 23.0077 15.0336 23.9405 15.9255L26.5218 13.3441C24.9632 11.8918 22.9259 11 20.5 11C16.9818 11 13.9382 13.0168 12.4573 15.9582L15.4641 18.29C16.1718 16.1627 18.1559 14.5795 20.5 14.5795Z" fill="#EA4335"/>
</svg>
